<svg xmlns="http://www.w3.org/2000/svg" viewBox="0 0 267.8 49.2"><path fill="#4D4D4D" d="M66.6 14.4V19H70v3.6h-3.3v9.7c0 .7.2 1.3.5 1.6.3.3.7.5 1.2.5h.9c.3 0 .6-.1.9-.1l.4 3.7c-.6.2-1.1.3-1.7.4-.6.1-1.2.1-1.8.1-1.8 0-3.1-.5-4.1-1.5-1-1-1.4-2.5-1.4-4.6v-9.7h-2.8V19h2.8v-4.6h5zM83.8 38c-.1-.3-.3-.6-.4-1-.1-.3-.2-.7-.2-1-.6.7-1.3 1.3-2.2 1.7-.9.4-1.9.6-3 .6-1.9 0-3.3-.5-4.4-1.5-1.1-1-1.6-2.4-1.6-4.1 0-1.8.7-3.2 2.1-4.1 1.4-1 3.5-1.5 6.3-1.5H83v-1.9c0-.9-.3-1.6-.8-2.1s-1.3-.8-2.3-.8c-.6 0-1.1.1-1.6.2s-.8.3-1.1.5l-.3 2H73v-4.2c.9-.6 2-1.2 3.2-1.6 1.2-.4 2.5-.6 4-.6 2.4 0 4.3.6 5.7 1.7 1.5 1.2 2.2 2.8 2.2 4.9v8.6c0 .3 0 .5.1.7l1.6.2V38h-6zm-4.4-3.4c.8 0 1.5-.2 2.1-.5.6-.3 1.1-.8 1.5-1.3v-2.9h-2.6c-1.1 0-1.9.3-2.5.8-.6.5-.8 1.1-.8 1.8 0 .6.2 1.1.6 1.5.4.4.9.6 1.7.6zM90.9 13.7v-3.1h7.9v23.8l2.5.5V38H91.2v-3.1l2.5-.5V14.3l-2.8-.6zM114.2 38c-.1-.3-.3-.6-.4-1-.1-.3-.2-.7-.2-1-.6.7-1.3 1.3-2.2 1.7-.9.4-1.9.6-3 .6-1.9 0-3.3-.5-4.4-1.5-1.1-1-1.6-2.4-1.6-4.1 0-1.8.7-3.2 2.1-4.1 1.4-1 3.5-1.5 6.3-1.5h2.6v-1.9c0-.9-.3-1.6-.8-2.1s-1.3-.8-2.3-.8c-.6 0-1.1.1-1.6.2s-.8.3-1.1.5l-.3 2h-3.9v-4.2c.9-.6 2-1.2 3.2-1.6 1.2-.4 2.5-.6 4-.6 2.4 0 4.3.6 5.7 1.7 1.5 1.2 2.2 2.8 2.2 4.9v8.6c0 .3 0 .5.1.7l1.6.2V38h-6zm-4.4-3.4c.8 0 1.5-.2 2.1-.5.6-.3 1.1-.8 1.5-1.3v-2.9h-2.6c-1.1 0-1.9.3-2.5.8-.6.5-.8 1.1-.8 1.8 0 .6.2 1.1.6 1.5.4.4 1 .6 1.7.6zM127.1 38H122v-4.5h5.1V38zM128.9 34.9l2.5-.5V22.6l-2.7-.5V19h7.9v15.4l2.5.5V38h-10v-3.1zm7.6-20.4h-5.1v-3.8h5.1v3.8zM155.4 25.6H152l-.5-2.4c-.4-.3-.8-.5-1.3-.7-.5-.2-1.1-.3-1.8-.3-.9 0-1.6.2-2.1.6-.5.4-.8.9-.8 1.5s.3 1 .8 1.4c.5.4 1.5.7 3 1 2.4.5 4.1 1.2 5.2 2.1 1.1.9 1.7 2.2 1.7 3.7 0 1.7-.7 3.1-2.2 4.2-1.5 1.1-3.4 1.6-5.8 1.6-1.5 0-2.8-.2-4-.6-1.2-.4-2.3-1-3.3-1.8l-.1-4.3h3.6l.7 2.5c.3.3.7.4 1.2.6.5.1 1.1.2 1.6.2 1 0 1.8-.2 2.4-.6.5-.4.8-.9.8-1.5s-.3-1-.8-1.5c-.5-.4-1.6-.8-3-1.1-2.2-.5-3.9-1.1-5.1-2-1.1-.9-1.7-2.1-1.7-3.7s.7-3 2-4.1c1.3-1.2 3.2-1.7 5.6-1.7 1.5 0 2.9.2 4.2.6 1.3.4 2.3.9 3.1 1.5v4.8z"/><path fill="#999" d="M158.3 12.9v-2.2h6.3v24.7l2.9.5V38h-9.2v-2.2l2.9-.5V13.4l-2.9-.5zM177.8 38.4c-2.6 0-4.7-.9-6.3-2.6-1.6-1.8-2.3-4-2.3-6.8v-.8c0-2.7.8-4.9 2.4-6.7 1.6-1.8 3.5-2.7 5.7-2.7 2.5 0 4.5.8 5.8 2.3 1.3 1.5 2 3.6 2 6.2v2.2h-12.3l-.1.1c0 1.8.5 3.3 1.4 4.5.9 1.2 2.1 1.8 3.7 1.8 1.2 0 2.2-.2 3.1-.5.9-.3 1.6-.8 2.3-1.4l1.4 2.2c-.7.7-1.6 1.2-2.7 1.7-1.2.2-2.5.5-4.1.5zm-.5-17c-1.2 0-2.1.5-3 1.5-.8 1-1.3 2.2-1.5 3.7v.1h8.8v-.5c0-1.4-.4-2.5-1.1-3.4-.7-.9-1.8-1.4-3.2-1.4zM186.9 35.8l2.9-.5V21.7l-2.9-.5V19h5.9l.2 2.8c.6-1 1.4-1.8 2.4-2.3 1-.6 2-.8 3.3-.8 2 0 3.6.6 4.8 1.8 1.1 1.2 1.7 3 1.7 5.6v9.3l2.9.5V38h-9.2v-2.2l2.9-.5v-9.2c0-1.7-.3-2.9-1-3.6-.7-.7-1.7-1.1-3-1.1-1 0-1.9.2-2.6.7-.8.5-1.4 1.1-1.8 2v11.1l2.9.5V38h-9.2v-2.2zM224.1 25h-2.6l-.6-2.3c-.4-.4-1-.7-1.6-1-.6-.2-1.4-.4-2.2-.4-1.2 0-2.1.3-2.7.8-.6.5-.9 1.2-.9 1.9s.3 1.3.8 1.8c.5.4 1.6.8 3.2 1.2 2.4.5 4.2 1.2 5.3 2.1 1.2.9 1.8 2.1 1.8 3.6 0 1.7-.7 3-2 4.1-1.4 1-3.1 1.6-5.3 1.6-1.4 0-2.7-.2-3.9-.5-1.1-.3-2.2-.8-3.1-1.4v-4.3h2.6l.6 2.5c.4.4.9.6 1.6.8.7.2 1.4.2 2.1.2 1.2 0 2.2-.2 2.9-.7.7-.5 1-1.1 1-2 0-.8-.3-1.4-.9-1.9-.6-.5-1.7-.9-3.3-1.3-2.3-.5-4-1.2-5.2-2.1-1.2-.9-1.8-2-1.8-3.5s.7-2.9 2-3.9c1.3-1.1 3-1.6 5.1-1.6 1.4 0 2.7.2 3.9.6 1.1.4 2.1.9 2.9 1.6l.3 4.1zM226.4 12.9v-2.2h6.3v15.9h2.2l4.1-5-1.7-.2V19h7.9v2.2l-2.3.5-5 6 6.1 7.7 2.2.4V38h-7.9v-2.2l1.8-.2-5-6.3h-2.3v6.1l2.9.5V38h-9.2v-2.2l2.9-.5V13.4l-3-.5zM262.3 35.2c-.6 1-1.4 1.8-2.3 2.4-.9.5-2 .8-3.3.8-2.1 0-3.7-.7-4.8-2-1.2-1.3-1.7-3.4-1.7-6.2v-8.5l-2.2-.5V19h5.7v11.2c0 2 .3 3.4.9 4.2.6.8 1.5 1.1 2.8 1.1 1.2 0 2.2-.2 3-.7.8-.5 1.4-1.2 1.8-2.1v-11l-2.5-.5V19h6v16.3l2.2.5V38h-5.3l-.3-2.8z"/><g opacity=".8" fill="#F00"><ellipse cx="27.5" cy="31.4" rx="23" ry="17.8"/><path d="M21.3 20.6C18.5 29.4 10 37.5.4 44.9c-.8.6-.2 1.6.8 1.4 15.2-2.6 46.5-8.4 45.6-21.2-.1 0-25.5-4.5-25.5-4.5z"/></g><g opacity=".8" fill="#0071BC"><ellipse cx="23.5" cy="17.8" rx="23" ry="17.8"/><path d="M29.7 28.7C32.5 19.9 41 11.8 50.6 4.4c.8-.6.2-1.6-.8-1.4C34.6 5.5 3.4 11.3 4.3 24.1l25.4 4.6z"/></g></svg>
